<svg width="46" height="40" viewBox="0 0 46 40" fill="none" xmlns="http://www.w3.org/2000/svg">
<path d="M1.64286 17.1429H44.3571C44.7929 17.1429 45.2107 16.9923 45.5188 16.7244C45.8269 16.4565 46 16.0932 46 15.7143V12.8571C46 12.4783 45.8269 12.1149 45.5188 11.847C45.2107 11.5791 44.7929 11.4286 44.3571 11.4286H1.64286C1.20714 11.4286 0.789277 11.5791 0.481182 11.847C0.173086 12.1149 0 12.4783 0 12.8571L0 15.7143C0 16.0932 0.173086 16.4565 0.481182 16.7244C0.789277 16.9923 1.20714 17.1429 1.64286 17.1429ZM44.3571 34.2857H1.64286C1.20714 34.2857 0.789277 34.4362 0.481182 34.7041C0.173086 34.972 0 35.3354 0 35.7143L0 38.5714C0 38.9503 0.173086 39.3137 0.481182 39.5816C0.789277 39.8495 1.20714 40 1.64286 40H44.3571C44.7929 40 45.2107 39.8495 45.5188 39.5816C45.8269 39.3137 46 38.9503 46 38.5714V35.7143C46 35.3354 45.8269 34.972 45.5188 34.7041C45.2107 34.4362 44.7929 34.2857 44.3571 34.2857ZM44.6826 3.48534e-07H17.7459C17.5729 -0.000117066 17.4015 0.0294328 17.2416 0.0869598C17.0818 0.144487 16.9365 0.228862 16.8141 0.335258C16.6918 0.441654 16.5947 0.567984 16.5286 0.70702C16.4624 0.846056 16.4284 0.995069 16.4286 1.14554V4.56875C16.4284 4.71922 16.4624 4.86823 16.5286 5.00727C16.5947 5.1463 16.6918 5.27263 16.8141 5.37903C16.9365 5.48542 17.0818 5.5698 17.2416 5.62733C17.4015 5.68485 17.5729 5.7144 17.7459 5.71429H44.6826C44.8557 5.7144 45.027 5.68485 45.1869 5.62733C45.3468 5.5698 45.4921 5.48542 45.6145 5.37903C45.7368 5.27263 45.8338 5.1463 45.9 5.00727C45.9662 4.86823 46.0001 4.71922 46 4.56875V1.14554C46.0001 0.995069 45.9662 0.846056 45.9 0.70702C45.8338 0.567984 45.7368 0.441654 45.6145 0.335258C45.4921 0.228862 45.3468 0.144487 45.1869 0.0869598C45.027 0.0294328 44.8557 -0.000117066 44.6826 3.48534e-07ZM44.6826 22.8571H17.7459C17.5729 22.857 17.4015 22.8866 17.2416 22.9441C17.0818 23.0016 16.9365 23.086 16.8141 23.1924C16.6918 23.2988 16.5947 23.4251 16.5286 23.5642C16.4624 23.7032 16.4284 23.8522 16.4286 24.0027V27.4259C16.4284 27.5764 16.4624 27.7254 16.5286 27.8644C16.5947 28.0034 16.6918 28.1298 16.8141 28.2362C16.9365 28.3426 17.0818 28.4269 17.2416 28.4845C17.4015 28.542 17.5729 28.5715 17.7459 28.5714H44.6826C44.8557 28.5715 45.027 28.542 45.1869 28.4845C45.3468 28.4269 45.4921 28.3426 45.6145 28.2362C45.7368 28.1298 45.8338 28.0034 45.9 27.8644C45.9662 27.7254 46.0001 27.5764 46 27.4259V24.0027C46.0001 23.8522 45.9662 23.7032 45.9 23.5642C45.8338 23.4251 45.7368 23.2988 45.6145 23.1924C45.4921 23.086 45.3468 23.0016 45.1869 22.9441C45.027 22.8866 44.8557 22.857 44.6826 22.8571Z" fill="url(#paint0_linear_3_8)"/>
<defs>
<linearGradient id="paint0_linear_3_8" x1="23" y1="8.5" x2="23" y2="67" gradientUnits="userSpaceOnUse">
<stop stop-color="#C3D8E4" stop-opacity="0.704301"/>
<stop offset="1" stop-color="#FFFCFC" stop-opacity="0"/>
</linearGradient>
</defs>
</svg>
