<svg width="131" height="132" viewBox="0 0 131 132" fill="none" xmlns="http://www.w3.org/2000/svg">
<g filter="url(#filter0_d_36_2)">
<path d="M20.375 100.516L4.76562 51.9062C4.48438 51.25 4.34375 50.5469 4.34375 49.7969C4.34375 49.0156 4.60938 48.3125 5.14062 47.6875C5.70312 47.0625 6.375 46.5938 7.15625 46.2812C7.9375 45.9688 8.67188 45.7344 9.35938 45.5781C10.0469 45.3906 10.6094 45.2969 11.0469 45.2969C12.4219 45.2969 13.3438 46.0625 13.8125 47.5938L26.3281 88.6094C26.8906 90.4531 27.1719 91.7812 27.1719 92.5938C27.1719 94.1562 26.6562 96.2188 25.625 98.7812C24.5938 101.344 23.5156 102.625 22.3906 102.625C21.5156 102.625 20.8438 101.922 20.375 100.516ZM52.2031 48.5312L35.6094 103.844C35.2031 104.875 34.8906 105.625 34.6719 106.094C34.4844 106.562 34.1094 107.219 33.5469 108.062C32.9844 108.875 32.3594 109.516 31.6719 109.984C30.6406 110.703 29.625 111.297 28.625 111.766C27.625 112.234 26.9062 112.469 26.4688 112.469C25.5938 112.469 25.1562 112 25.1562 111.062C25.1562 110.688 25.4688 109.453 26.0938 107.359L42.3125 52.75C42.8438 51 44.0312 49.3281 45.875 47.7344C47.7188 46.1094 49.4531 45.2969 51.0781 45.2969C52.0156 45.2969 52.4844 45.7656 52.4844 46.7031C52.4844 47.2656 52.3906 47.875 52.2031 48.5312ZM70.5312 47.3125V105.484C70.5312 107.016 70.2031 108.156 69.5469 108.906C68.7656 109.844 67.6562 110.672 66.2188 111.391C64.8125 112.109 63.6562 112.469 62.75 112.469C61.6562 112.469 61.1094 111.797 61.1094 110.453V52.2812C61.1094 50.9688 61.4375 49.9219 62.0938 49.1406C62.9062 48.1719 64.0156 47.2969 65.4219 46.5156C66.8281 45.7031 67.9844 45.2969 68.8906 45.2969C69.9844 45.2969 70.5312 45.9688 70.5312 47.3125ZM95.75 110.547L74.1875 79.75C73.5312 78.8438 73.2031 78.0156 73.2031 77.2656C73.2031 76.1719 73.75 74.9219 74.8438 73.5156L92.5156 50.0781C93.9844 48.1094 95.3125 46.8281 96.5 46.2344C97.7188 45.6094 99.5 45.2969 101.844 45.2969C103.562 45.2969 104.422 45.7656 104.422 46.7031C104.422 47.3906 103.969 48.2969 103.062 49.4219L84.3594 73.0469C83.4531 74.2031 83 75.125 83 75.8125C83 76.4688 83.4688 77.4219 84.4062 78.6719L103.062 103.562C103.719 104.469 104.047 105.297 104.047 106.047C104.047 106.922 103.781 107.812 103.25 108.719C101.688 111.219 100.031 112.469 98.2812 112.469C97.5 112.469 96.6562 111.828 95.75 110.547Z" fill="url(#paint0_linear_36_2)" fill-opacity="0.704301" shape-rendering="crispEdges"/>
</g>
<defs>
<filter id="filter0_d_36_2" x="0.34375" y="45.2969" width="108.078" height="76.1719" filterUnits="userSpaceOnUse" color-interpolation-filters="sRGB">
<feFlood flood-opacity="0" result="BackgroundImageFix"/>
<feColorMatrix in="SourceAlpha" type="matrix" values="0 0 0 0 0 0 0 0 0 0 0 0 0 0 0 0 0 0 127 0" result="hardAlpha"/>
<feOffset dy="5"/>
<feGaussianBlur stdDeviation="2"/>
<feComposite in2="hardAlpha" operator="out"/>
<feColorMatrix type="matrix" values="0 0 0 0 0 0 0 0 0 0 0 0 0 0 0 0 0 0 0.25 0"/>
<feBlend mode="normal" in2="BackgroundImageFix" result="effect1_dropShadow_36_2"/>
<feBlend mode="normal" in="SourceGraphic" in2="effect1_dropShadow_36_2" result="shape"/>
</filter>
<linearGradient id="paint0_linear_36_2" x1="66.2028" y1="53.5" x2="66.2028" y2="166.5" gradientUnits="userSpaceOnUse">
<stop stop-color="#C3D8E4"/>
<stop offset="1" stop-color="#C3D8E4" stop-opacity="0"/>
</linearGradient>
</defs>
</svg>
